<svg width="24" height="24" viewBox="0 0 24 24" fill="none" xmlns="http://www.w3.org/2000/svg">
<g opacity="0.8">
<path d="M19.2727 12.0005C19.0798 12.0005 18.8948 12.0771 18.7584 12.2135C18.622 12.3499 18.5454 12.5348 18.5454 12.7277V17.0911C18.5454 17.4768 18.3922 17.8468 18.1194 18.1195C17.8466 18.3923 17.4766 18.5455 17.0909 18.5455H6.90908C6.52331 18.5455 6.15335 18.3923 5.88057 18.1195C5.60779 17.8468 5.45454 17.4768 5.45454 17.0911V6.90989C5.45454 6.52414 5.60779 6.1542 5.88057 5.88143C6.15335 5.60867 6.52331 5.45543 6.90908 5.45543H11.2727C11.4656 5.45543 11.6506 5.37881 11.787 5.24243C11.9234 5.10605 12 4.92108 12 4.7282C12 4.53533 11.9234 4.35036 11.787 4.21398C11.6506 4.0776 11.4656 4.00098 11.2727 4.00098H6.90908C6.13755 4.00098 5.39761 4.30745 4.85205 4.85298C4.30649 5.3985 4 6.1384 4 6.90989V17.0911C4 17.8626 4.30649 18.6025 4.85205 19.148C5.39761 19.6935 6.13755 20 6.90908 20H17.0909C17.8624 20 18.6023 19.6935 19.1479 19.148C19.6935 18.6025 20 17.8626 20 17.0911V12.7277C20 12.5348 19.9233 12.3499 19.7869 12.2135C19.6505 12.0771 19.4656 12.0005 19.2727 12.0005Z" fill="#363636"/>
<path d="M19.9366 4.44657C19.9033 4.37199 19.8575 4.30362 19.8013 4.2444C19.7926 4.23494 19.7897 4.22258 19.7802 4.21313C19.7707 4.20367 19.7584 4.20076 19.7489 4.19204C19.6195 4.0669 19.446 3.99791 19.266 4.00005H14.9024C14.7095 4.00005 14.5245 4.07667 14.3881 4.21305C14.2517 4.34943 14.1751 4.5344 14.1751 4.72728C14.1751 4.92015 14.2517 5.10512 14.3881 5.2415C14.5245 5.37789 14.7095 5.45451 14.9024 5.45451H17.5104L12.2064 10.7582C12.1369 10.8253 12.0815 10.9055 12.0434 10.9942C12.0053 11.083 11.9852 11.1784 11.9844 11.2749C11.9836 11.3715 12.002 11.4673 12.0385 11.5566C12.0751 11.646 12.1291 11.7272 12.1974 11.7955C12.2657 11.8638 12.3469 11.9178 12.4363 11.9543C12.5256 11.9909 12.6214 12.0093 12.718 12.0085C12.8145 12.0076 12.91 11.9876 12.9987 11.9495C13.0874 11.9113 13.1677 11.8559 13.2348 11.7865L18.5387 6.48281V9.09065C18.5387 9.28352 18.6154 9.46849 18.7518 9.60488C18.8881 9.74126 19.0731 9.81788 19.266 9.81788C19.4589 9.81788 19.6439 9.74126 19.7803 9.60488C19.9167 9.46849 19.9933 9.28352 19.9933 9.09065V4.72728C19.9934 4.63085 19.9741 4.53539 19.9366 4.44657Z" fill="#363636"/>
</g>
</svg>
